<svg xmlns="http://www.w3.org/2000/svg" version="1.1" xmlns:xlink="http://www.w3.org/1999/xlink" xmlns:svgjs="http://svgjs.dev/svgjs" width="100%" height="100%" viewBox="0 0 1000 600"><rect width="1000" height="600" x="0" y="0" fill="#533549"/><g><rect width="333.3333333333333" height="333.3333333333333" y="236.89046059705007" fill="#f6b042" transform="matrix(0.5822940135178716,0,0,0.5822940135178715,0,65.01113371086072)" x="214.66818237304685"/><path d="M318.79318549391616 328.5571189215823L344.29318549391616 328.5571189215823L344.29318549391616 431.14045225491566Q344.00151882724947 444.9321189215823 349.37651882724947 450.6404522549156Q354.79318549391616 456.348785588249 367.37651882724947 456.348785588249L367.37651882724947 456.348785588249Q379.7098521605828 456.348785588249 391.8348521605828 450.473785588249Q404.00151882724947 444.6404522549156 421.0848521605828 433.5571189215823L421.0848521605828 433.5571189215823L424.37651882724947 451.223785588249Q407.29318549391616 464.7237855882489 391.25151882724947 471.64045225491566Q375.2098521605828 478.5571189215823 358.7098521605828 478.5571189215823L358.7098521605828 478.5571189215823Q318.79318549391616 478.5571189215823 318.79318549391616 438.348785588249L318.79318549391616 438.348785588249L318.79318549391616 328.5571189215823ZM418.37651882724947 328.5571189215823L443.8765188272495 328.5571189215823L443.8765188272495 474.64045225491566L423.50151882724947 474.64045225491566L421.0848521605828 447.0571189215823L418.37651882724947 442.5571189215823L418.37651882724947 328.5571189215823Z " fill="#533549" transform="matrix(0.5822940135178716,0,0,0.5822940135178715,0,65.01113371086072)"/><path d="M631.3348531319176 363.9043379956326L645.5015191314048 363.9043379956326L645.5015191314048 420.89507605239294Q645.3394821019989 428.55711272858616 648.3255930724791 431.72840887553014Q651.3348521900172 434.89970502247417 658.3255926015288 434.89970502247417L658.3255926015288 434.89970502247417Q665.1774441306925 434.89970502247417 671.9135549245663 431.6358162872982Q678.6728138654981 428.3950756991802 688.1635541592722 422.2376685817561L688.1635541592722 422.2376685817561L689.992257776853 432.0524829343419Q680.5015174830789 439.55248258112925 671.5894808657545 443.39507499275487Q662.6774442484301 447.23766740438043 653.5107780134678 447.23766740438043L653.5107780134678 447.23766740438043Q631.3348531319176 447.23766740438043 631.3348531319176 424.89970549342445L631.3348531319176 424.89970549342445L631.3348531319176 363.9043379956326ZM686.658924600503 363.9043379956326L700.8255905999903 363.9043379956326L700.8255905999903 445.06174158092983L689.5061466886353 445.06174158092983L688.1635541592722 429.7376682285434L686.658924600503 427.23766834628094L686.658924600503 363.9043379956326ZM753.834847362777 361.89044920158784L753.834847362777 361.89044920158784Q759.1589211861137 361.89044920158784 765.1774394211899 362.23767140745764Q771.1728095092083 362.56174546626943 777.0755870089945 363.0710047015451Q783.0015126558387 363.5571157897628 788.0015124203636 364.3904490838503L788.0015124203636 364.3904490838503L786.8441050674644 374.7376708187698Q779.1589202442132 374.3904486129 771.427439126846 374.1358189952622Q763.6728098624209 373.9043375246823 756.0107731862277 373.9043375246823L756.0107731862277 373.9043375246823Q748.5107735394404 373.7191523482185 744.1589218925391 374.2284115834941Q739.8302183926958 374.7376708187698 737.908922186883 376.89044849516245Q736.0107741281282 379.0663743186131 736.0107741281282 384.2284111125439L736.0107741281282 384.2284111125439Q736.0107741281282 390.5710034064319 738.9968850986083 392.56174405341864Q742.0061442161465 394.55248470040544 747.8394772747588 395.89507722976856L747.8394772747588 395.89507722976856L771.4968835680199 401.21915105310524Q781.1728090382579 403.5571139059618 785.7561421557391 408.3950766410807Q790.3394752732202 413.2330393761997 790.3394752732202 423.5571129640613L790.3394752732202 423.5571129640613Q790.3394752732202 433.557112493111 786.5894754498265 438.5571122576359Q782.8394756264329 443.55711202216077 775.1774389502397 445.22377861033567Q767.4922541269884 446.89044519851063 755.6635509803579 446.89044519851063L755.6635509803579 446.89044519851063Q751.3348474805146 446.89044519851063 742.746884922002 446.56637113969884Q734.1589223634894 446.21914893382905 723.8348487756278 444.55248234565414L723.8348487756278 444.55248234565414L724.8302190991211 434.2284087577926Q728.8348485401527 434.3904457871985 733.3255890694019 434.64507540483635Q737.839477745709 434.89970502247417 742.746884922002 434.89970502247417Q747.6774402453528 434.89970502247417 752.8394770392837 434.89970502247417L752.8394770392837 434.89970502247417Q762.0061432742459 434.89970502247417 767.1681800681768 434.0663717283867Q772.3302168621075 433.2330384342992 774.5061426855581 430.80248299321073Q776.6589203619508 428.3950756991802 776.6589203619508 423.5571129640613L776.6589203619508 423.5571129640613Q776.6589203619508 417.561742876043 773.163550156195 415.57100222905626Q769.6681799504391 413.5571134350115 763.8348468918268 412.23766905270634L763.8348468918268 412.23766905270634L740.5015146573774 406.8904470823117Q733.8348483046775 405.22378049413675 729.8302188636461 402.46915099423643Q725.8255894226146 399.7376696413942 723.9968858050337 395.31637355331895Q722.1681821874529 390.8950774652437 722.1681821874529 384.2284111125439L722.1681821874529 384.2284111125439Q722.1681821874529 374.7376708187698 725.5015153638027 369.8997080836508Q728.8348485401527 365.0617453485319 735.8255889516643 363.3950787603569Q742.8394775102339 361.72841217218195 753.834847362777 361.89044920158784ZM844.830213447718 361.89044920158784L844.830213447718 361.89044920158784Q863.1635459176426 361.89044920158784 871.4274344173434 368.5571155542877Q879.6681747699863 375.2237819069875 879.6681747699863 388.3950775829813L879.6681747699863 388.3950775829813Q879.8302117993921 399.2284104061185 875.177434240737 405.31637308236867Q870.5015085350241 411.40433575861886 860.3394719765683 411.40433575861886L860.3394719765683 411.40433575861886L813.001511242988 411.40433575861886L813.001511242988 400.38581775901775L856.6589165943486 400.38581775901775Q862.1681755941493 400.38581775901775 863.8348421823242 396.6358179356241Q865.5015087704992 392.8858181122305 865.5015087704992 388.3950775829813L865.5015087704992 388.3950775829813Q865.3394717410932 380.57100387738217 860.8255830647861 377.23767070103224Q856.3348425355368 373.9043375246823 845.5015097123996 373.9043375246823L845.5015097123996 373.9043375246823Q836.6589175362492 373.9043375246823 831.5894733305504 376.47378184811873Q826.4968809777936 379.0663743186131 824.4135477425749 385.4784110536751Q822.3302145073561 391.8904477887371 822.3302145073561 403.3950768765559L822.3302145073561 403.3950768765559Q822.3302145073561 416.40433552314374 824.9228069778505 423.2330389052495Q827.492251301287 430.0617422873552 833.1635473304934 432.5617421696176Q838.8348433596998 435.06174205188006 848.163546624068 435.06174205188006L848.163546624068 435.06174205188006Q854.668175947362 435.06174205188006 862.4228052117871 434.4830383754304Q870.1774344762123 433.9043346989808 876.3348415936364 433.0710014048933L876.3348415936364 433.0710014048933L877.8394711524054 442.56174169866733Q873.9968787407798 444.06637125743646 868.4181752998053 445.06174158092983Q862.8394718588308 446.0571119044232 856.9135462119865 446.56637113969884Q851.0107687122002 447.0524822279166 846.3348430064872 447.0524822279166L846.3348430064872 447.0524822279166Q832.3302140364059 447.0524822279166 823.8348440661252 442.8163713163052Q815.3394740958445 438.5571122576359 811.427437243045 429.13581640503577Q807.4922522431875 419.73766869949367 807.4922522431875 404.2284101706434L807.4922522431875 404.2284101706434Q807.4922522431875 388.2330405535754 811.427437243045 378.9737817303812Q815.3394740958445 369.7376710542449 823.5802144484874 365.8024860543874Q831.8441029481883 361.89044920158784 844.830213447718 361.89044920158784ZM942.0061347971413 328.5571174380887L942.0061347971413 328.5571174380887Q955.8255785907586 328.5571174380887 963.9274300610537 331.72841358503274Q972.0061333842905 334.8997097319767 975.5015035900464 342.65433899640186Q978.9968737958021 350.38582011376906 978.9968737958021 364.5524861132562L978.9968737958021 364.5524861132562Q978.9968737958021 378.7191521127433 975.5940961782783 386.56637396540043Q972.1681704136963 394.3904476709995 964.4135411492713 397.4691512297116Q956.6589118848461 400.57100293548166 943.6728013853162 400.57100293548166L943.6728013853162 400.57100293548166Q936.6589128267467 400.57100293548166 930.2468760916847 400.22378072961186Q923.8348393566226 399.8997066708001 918.510765533286 399.3210029943504Q913.1635435628914 398.7191511708428 909.4135437394978 398.0710030532192Q905.663543916104 397.3997067885376 904.158914357335 396.89044755326194L904.158914357335 396.89044755326194L904.6681735926106 387.8858183477056Q913.5107657687611 387.8858183477056 923.0015060625352 387.8858183477056Q932.4922463563092 387.8858183477056 941.8440977677353 387.8858183477056L941.8440977677353 387.8858183477056Q950.1774307086101 387.7237813182997 955.084837884903 385.80248511248686Q959.9922450611961 383.9043370537321 962.0755782964147 378.8117447009753Q964.1589115316334 373.7191523482185 964.1589115316334 364.5524861132562L964.1589115316334 364.5524861132562Q964.1589115316334 355.22378284888805 962.0755782964147 350.22378308436316Q959.9922450611961 345.2237833198383 955.084837884903 343.2330426728515Q950.1774307086101 341.21915387880676 941.8440977677353 341.21915387880676L941.8440977677353 341.21915387880676Q928.1635428564659 341.21915387880676 918.2561359156481 341.40433905527067Q908.3255808277723 341.56637608467656 904.8302106220165 341.89045014348835L904.8302106220165 341.89045014348835L902.49224776916 330.0617469968578Q908.834840063048 329.3904507321762 914.3440990628486 329.0663766733644Q919.8302099155912 328.7191544674946 926.334839238885 328.64971002632063Q932.839468562179 328.5571174380887 942.0061347971413 328.5571174380887ZM902.49224776916 330.0617469968578L917.1681730039228 330.0617469968578L917.1681730039228 445.06174158092983L902.49224776916 445.06174158092983L902.49224776916 330.0617469968578ZM1032.6774268232707 361.89044920158784L1032.6774268232707 361.89044920158784Q1046.6589076462938 361.89044920158784 1055.0848331754005 366.05711567202525Q1063.5107587045072 370.22378214246265 1067.168165939669 379.6450779950627Q1070.8255731748309 389.0663738476628 1070.8255731748309 404.55248422945516L1070.8255731748309 404.55248422945516Q1070.8255731748309 420.06174275830546 1067.168165939669 429.4830386109055Q1063.5107587045072 438.9043344635057 1055.0848331754005 443.0710009339431Q1046.6589076462938 447.23766740438043 1032.6774268232707 447.23766740438043L1032.6774268232707 447.23766740438043Q1018.8348348825953 447.23766740438043 1010.4089093534884 443.0710009339431Q1002.0061319714398 438.9043344635057 998.256132148046 429.4830386109055Q994.5061323246523 420.06174275830546 994.5061323246523 404.55248422945516L994.5061323246523 404.55248422945516Q994.5061323246523 389.0663738476628 998.256132148046 379.6450779950627Q1002.0061319714398 370.22378214246265 1010.4089093534884 366.05711567202525Q1018.8348348825953 361.89044920158784 1032.6774268232707 361.89044920158784ZM1032.6774268232707 373.9043375246823L1032.6774268232707 373.9043375246823Q1023.83483464712 373.9043375246823 1018.7422422943632 376.6358188775246Q1013.6727980886644 379.3904483774249 1011.4968722652138 386.05711473012474Q1009.3440945888211 392.72378108282453 1009.3440945888211 404.55248422945516L1009.3440945888211 404.55248422945516Q1009.3440945888211 416.40433552314374 1011.4968722652138 423.07100187584354Q1013.6727980886644 429.7376682285434 1018.7422422943632 432.4691495813857Q1023.83483464712 435.22377908128595 1032.6774268232707 435.22377908128595L1032.6774268232707 435.22377908128595Q1041.496870852363 435.22377908128595 1046.6589076462938 432.4691495813857Q1051.8440925872828 429.7376682285434 1053.9968702636752 423.07100187584354Q1056.1727960871258 416.40433552314374 1056.1727960871258 404.55248422945516L1056.1727960871258 404.55248422945516Q1056.1727960871258 392.72378108282453 1053.9968702636752 386.05711473012474Q1051.8440925872828 379.3904483774249 1046.6589076462938 376.6358188775246Q1041.496870852363 373.9043375246823 1032.6774268232707 373.9043375246823ZM1139.5061254958737 361.89044920158784L1139.5061254958737 361.89044920158784Q1154.3440877600424 361.89044920158784 1160.8255689362786 372.816374612957Q1167.3301982595722 383.7191518772682 1167.3301982595722 404.8997064353249L1167.3301982595722 404.8997064353249Q1167.3301982595722 420.57100199358115 1163.9968650832225 429.80711266971736Q1160.6635319068723 439.06637149291157 1153.9274211129987 443.0710009339431Q1147.1681621720668 447.0524822279166 1136.6589034077415 447.0524822279166L1136.6589034077415 447.0524822279166Q1128.6727926727367 447.0524822279166 1120.9181634083116 444.8997045515239Q1113.1635341438864 442.7237787280733 1105.825571526505 438.2330381988241L1105.825571526505 438.2330381988241L1106.6589048205924 429.7376682285434Q1114.5061266732496 431.89044590493603 1120.5014967612678 433.3024828754732Q1126.496866849286 434.73766799306827 1133.163533201986 434.73766799306827L1133.163533201986 434.73766799306827Q1140.339458789961 434.73766799306827 1144.5755697015725 432.2376681108058Q1148.834828760242 429.7376682285434 1150.8255694072286 423.2330389052495Q1152.8394582012734 416.72840958195553 1152.8394582012734 404.8997064353249L1152.8394582012734 404.8997064353249Q1152.8394582012734 393.3950773475061 1151.0107545836927 386.7284109948063Q1149.1589028190538 380.0617446421065 1145.246865966254 377.1450781128003Q1141.3348291134548 374.2284115834941 1134.8301997901608 374.2284115834941L1134.8301997901608 374.2284115834941Q1128.163533437461 374.2284115834941 1121.658904114167 377.39970773043814Q1115.1774229379312 380.57100387738217 1106.4968677911866 387.0524850536181L1106.4968677911866 387.0524850536181L1105.1774234088812 377.56174475984403Q1109.6681639381304 372.7237820247251 1115.339459967337 369.2284118189693Q1121.0107559965436 365.73304161321346 1127.2607557021993 363.8117454074006Q1133.5107554078554 361.89044920158784 1139.5061254958737 361.89044920158784ZM1093.001498056381 363.9043379956326L1104.6681641736054 363.9043379956326L1106.1727937323744 380.73304090678806L1107.1681640558681 382.8858185831807L1107.1681640558681 434.89970502247417L1106.4968677911866 436.8904456694609Q1107.0061270264619 441.56637137517396 1107.075571467636 445.89507487501726Q1107.1681640558681 450.22377837486056 1107.1681640558681 455.06174110997955L1107.1681640558681 455.06174110997955L1107.1681640558681 478.5571103738348L1093.001498056381 478.5571103738348L1093.001498056381 363.9043379956326ZM1224.3440844633906 361.89044920158784L1224.3440844633906 361.89044920158784Q1228.0014916985524 361.89044920158784 1232.4922322278017 362.23767140745764Q1237.0061209041087 362.56174546626943 1241.7514910509958 363.3950787603569Q1246.496861197883 364.2284120544444 1250.5014906389142 365.73304161321346L1250.5014906389142 365.73304161321346L1248.6727870213335 374.8997078481757Q1243.1635280215328 374.3904486129 1237.0755653452825 374.1358189952622Q1231.0107508160904 373.9043375246823 1226.6588991691892 373.9043375246823L1226.6588991691892 373.9043375246823Q1217.0061218460091 373.9043375246823 1211.334825816803 376.56637443635066Q1205.6635297875964 379.228411348019 1203.1635299053337 385.89507770071884Q1200.6635300230714 392.56174405341864 1200.6635300230714 404.39044720004927L1200.6635300230714 404.39044720004927Q1200.6635300230714 416.21915034667984 1203.1635299053337 422.9784092876116Q1205.6635297875964 429.7376682285434 1211.334825816803 432.3997051402117Q1217.0061218460091 435.06174205188006 1226.6588991691892 435.06174205188006L1226.6588991691892 435.06174205188006Q1229.1588990514515 435.06174205188006 1233.1635284924832 434.89970502247417Q1237.1681579335145 434.73766799306827 1241.7514910509958 434.3904457871985Q1246.334824168477 434.0663717283867 1250.5014906389142 433.3950754637051L1250.5014906389142 433.3950754637051L1252.0061201976832 442.8858157574792Q1245.8255649332013 445.06174158092983 1238.580194904052 446.0571119044232Q1231.334824874902 447.0524822279166 1224.158899286927 447.0524822279166L1224.158899286927 447.0524822279166Q1210.1774184639035 447.0524822279166 1201.6589003465647 442.8858157574792Q1193.1635303762841 438.7191492870418 1189.4135305528907 429.39044602267364Q1185.6635307294969 420.06174275830546 1185.6635307294969 404.39044720004927L1185.6635307294969 404.39044720004927Q1185.6635307294969 388.7191516417931 1189.5061231411223 379.3904483774249Q1193.32556740569 370.06174511305676 1201.8440855230288 365.9876712308513Q1210.3394554933093 361.89044920158784 1224.3440844633906 361.89044920158784ZM1304.1588955193247 361.89044920158784L1304.1588955193247 361.89044920158784Q1318.163524489406 361.89044920158784 1326.5894500185127 366.05711567202525Q1334.9922274005617 370.22378214246265 1338.6727827827813 379.6450779950627Q1342.3301900179426 389.0663738476628 1342.3301900179426 404.55248422945516L1342.3301900179426 404.55248422945516Q1342.3301900179426 420.06174275830546 1338.6727827827813 429.4830386109055Q1334.9922274005617 438.9043344635057 1326.5894500185127 443.0710009339431Q1318.163524489406 447.23766740438043 1304.1588955193247 447.23766740438043L1304.1588955193247 447.23766740438043Q1290.3394517257075 447.23766740438043 1281.9135261966007 443.0710009339431Q1273.5107488145518 438.9043344635057 1269.7607489911584 429.4830386109055Q1266.0107491677645 420.06174275830546 1266.0107491677645 404.55248422945516L1266.0107491677645 404.55248422945516Q1266.0107491677645 389.0663738476628 1269.7607489911584 379.6450779950627Q1273.5107488145518 370.22378214246265 1281.9135261966007 366.05711567202525Q1290.3394517257075 361.89044920158784 1304.1588955193247 361.89044920158784ZM1304.1588955193247 373.9043375246823L1304.1588955193247 373.9043375246823Q1295.339451490232 373.9043375246823 1290.2468591374754 376.6358188775246Q1285.1774149317766 379.3904483774249 1283.001489108326 386.05711473012474Q1280.8255632848754 392.72378108282453 1280.8255632848754 404.55248422945516L1280.8255632848754 404.55248422945516Q1280.8255632848754 416.40433552314374 1283.001489108326 423.07100187584354Q1285.1774149317766 429.7376682285434 1290.2468591374754 432.4691495813857Q1295.339451490232 435.22377908128595 1304.1588955193247 435.22377908128595L1304.1588955193247 435.22377908128595Q1313.0014876954751 435.22377908128595 1318.163524489406 432.4691495813857Q1323.3255612833368 429.7376682285434 1325.5014871067874 423.07100187584354Q1327.677412930238 416.40433552314374 1327.677412930238 404.55248422945516L1327.677412930238 404.55248422945516Q1327.677412930238 392.72378108282453 1325.5014871067874 386.05711473012474Q1323.3255612833368 379.3904483774249 1318.163524489406 376.6358188775246Q1313.0014876954751 373.9043375246823 1304.1588955193247 373.9043375246823ZM1364.5061148994928 363.9043379956326L1375.501484752036 363.9043379956326L1377.3301883696167 379.3904483774249L1378.67278089898 381.89044825968733L1378.67278089898 445.06174158092983L1364.5061148994928 445.06174158092983L1364.5061148994928 363.9043379956326ZM1411.6588904566092 361.89044920158784L1415.3394458388293 361.89044920158784L1413.672779250654 375.2237819069875L1408.9968535449411 375.2237819069875Q1401.8440761040238 375.2237819069875 1394.6681505160482 378.1404484362937Q1387.4922249280726 381.05711496559985 1377.168151340211 386.4043369359945L1377.168151340211 386.4043369359945L1376.0107439873118 377.56174475984403Q1384.9922250458103 370.22378214246265 1394.0894468395986 366.05711567202525Q1403.1635204863287 361.89044920158784 1411.6588904566092 361.89044920158784L1411.6588904566092 361.89044920158784ZM1480.6635168364642 361.89044920158784L1480.6635168364642 361.89044920158784Q1502.6774046886085 361.89044920158784 1502.6774046886085 384.2284111125439L1502.6774046886085 384.2284111125439L1502.6774046886085 445.06174158092983L1488.5107386891214 445.06174158092983L1488.5107386891214 388.2330405535754Q1488.5107386891214 380.0617446421065 1485.825553630395 376.9830410833944Q1483.1635167187264 373.9043375246823 1476.8440725718965 373.9043375246823L1476.8440725718965 373.9043375246823Q1469.3440729251092 373.9043375246823 1461.844073278322 377.56174475984403Q1454.3440736315347 381.21915199500575 1443.9968518966152 387.5617442888938L1443.9968518966152 387.5617442888938L1443.3255556319336 377.39970773043814Q1452.8394440727657 370.06174511305676 1462.1681473371336 365.9876712308513Q1471.496850601502 361.89044920158784 1480.6635168364642 361.89044920158784ZM1431.3348154558971 363.9043379956326L1443.3255556319336 363.9043379956326L1444.506111131891 379.3904483774249L1445.5014814553842 381.89044825968733L1445.5014814553842 445.06174158092983L1431.3348154558971 445.06174158092983L1431.3348154558971 363.9043379956326Z " fill="#f6b042" transform="matrix(0.5822940135178716,0,0,0.5822940135178715,0,65.01113371086072)"/></g></svg>